<svg width="199" height="68" viewBox="0 0 199 68" fill="none" xmlns="http://www.w3.org/2000/svg">
<path d="M73.5513 38.6505C71.5692 38.6505 69.8678 39.0615 68.5332 39.5823V37.5559C69.768 37.1614 71.7397 36.6819 73.9005 36.6819C75.9947 36.6819 77.6296 37.1807 78.7369 38.1663C79.8338 39.1426 80.4902 40.666 80.4902 42.8874V48.3705V48.381L80.4906 48.3914C80.5121 48.9066 80.6796 49.335 81.0197 49.6244C81.3491 49.9048 81.7631 49.9881 82.1427 49.9881C82.3155 49.9881 82.4907 49.9666 82.6555 49.9372V51.4022C82.154 51.5549 81.5741 51.6424 80.9902 51.6424C79.7376 51.6424 78.8296 51.1554 78.3716 50.1534L78.1027 49.5653L77.6012 49.9735C76.1869 51.1247 74.4119 51.8519 72.1193 51.8519C70.807 51.8519 69.5791 51.4902 68.6912 50.7931C67.8177 50.1073 67.241 49.0742 67.241 47.6371C67.241 45.8515 68.0464 44.7246 69.217 44.0184C70.4186 43.2934 72.0276 43.0032 73.5862 43.0032C74.8752 43.0032 76.3036 43.1735 77.4531 43.444L78.0676 43.5885V42.9572V42.3985C78.0676 41.3087 77.6664 40.3501 76.8644 39.6723C76.0718 39.0024 74.9405 38.6505 73.5513 38.6505ZM77.9211 48.2002L78.0676 48.0538V47.8467V45.2623V44.8464L77.6586 44.7706C76.7144 44.5958 75.3825 44.3781 74.2497 44.3781C73.2515 44.3781 72.1656 44.5303 71.31 44.9704C70.4264 45.425 69.7683 46.2055 69.7683 47.3927C69.7683 48.3119 70.1836 49.0267 70.8305 49.4957C71.4611 49.9529 72.2883 50.1628 73.1322 50.1628C74.898 50.1628 76.5994 49.522 77.9211 48.2002Z" fill="black" stroke="black"/>
<path d="M85.0875 44.389L85.0875 44.386C85.0709 41.6466 86.1021 39.7308 87.5882 38.4909C89.0884 37.2395 91.0897 36.6469 93.0392 36.6469C94.5766 36.6469 96.0604 36.9707 97.254 37.6233V39.5862C96.1541 39.0127 94.8203 38.6853 93.4932 38.6853C92.0521 38.6853 90.5698 39.063 89.4365 39.9638C88.286 40.8783 87.545 42.2935 87.545 44.2493C87.545 46.1358 88.2685 47.5471 89.3994 48.4772C90.5166 49.3961 91.9906 49.8134 93.4583 49.8134C94.8755 49.8134 96.2635 49.4698 97.4287 48.9416V50.9825C96.1067 51.5583 94.5979 51.8518 92.8646 51.8518C90.916 51.8518 88.9672 51.2597 87.5148 50.0433C86.0751 48.8375 85.0875 46.9899 85.0875 44.389Z" fill="black" stroke="black"/>
<path d="M106.834 38.6505C104.852 38.6505 103.151 39.0615 101.816 39.5823V37.5559C103.051 37.1614 105.023 36.6819 107.184 36.6819C109.278 36.6819 110.913 37.1807 112.02 38.1663C113.117 39.1426 113.773 40.666 113.773 42.8874V48.3705V48.381L113.774 48.3914C113.796 48.9171 113.978 49.3429 114.32 49.6278C114.649 49.9024 115.058 49.9881 115.426 49.9881C115.598 49.9881 115.774 49.9666 115.939 49.9372V51.4022C115.437 51.5549 114.857 51.6424 114.273 51.6424C113.021 51.6424 112.113 51.1554 111.655 50.1534L111.386 49.5653L110.884 49.9735C109.47 51.1247 107.695 51.8519 105.402 51.8519C104.09 51.8519 102.862 51.4902 101.974 50.7931C101.101 50.1073 100.524 49.0742 100.524 47.6371C100.524 45.8515 101.329 44.7246 102.5 44.0184C103.702 43.2934 105.311 43.0032 106.869 43.0032C108.158 43.0032 109.587 43.1735 110.736 43.444L111.351 43.5885V42.9572V42.3985C111.351 41.3087 110.949 40.3501 110.147 39.6723C109.355 39.0024 108.223 38.6505 106.834 38.6505ZM111.239 48.2002L111.386 48.0538V47.8467V45.2623V44.8464L110.977 44.7706C110.032 44.5958 108.7 44.3781 107.568 44.3781C106.553 44.3781 105.466 44.53 104.614 44.971C103.732 45.4274 103.086 46.2092 103.086 47.3927C103.086 48.3119 103.502 49.0267 104.148 49.4957C104.779 49.9529 105.606 50.1628 106.45 50.1628C108.216 50.1628 109.917 49.522 111.239 48.2002Z" fill="black" stroke="black"/>
<path d="M131.502 38.4868V30.0112H133.925V51.3979H131.852V49.4531V48.0146L130.959 49.143C129.845 50.5522 128.163 51.782 125.484 51.782C121.164 51.782 118.371 48.3902 118.371 44.1795C118.371 40.0024 121.165 36.577 125.484 36.577C128.008 36.577 129.657 37.6853 130.623 38.8122L131.502 39.8385V38.4868ZM131.425 46.3008L131.467 46.205V46.1004V42.3635V42.2589L131.425 42.1631C130.626 40.3363 128.719 38.6504 126.078 38.6504C124.569 38.6504 123.247 39.2166 122.304 40.2177C121.363 41.2171 120.828 42.6198 120.828 44.2494C120.828 47.5051 123.054 49.8134 126.078 49.8134C128.719 49.8134 130.626 48.1275 131.425 46.3008Z" fill="black" stroke="black"/>
<path d="M147.067 49.9182C148.673 49.9182 150.179 49.5911 151.422 49.1006V50.9455C150.13 51.4918 148.372 51.8169 146.439 51.8169C144.171 51.8169 142.121 51.1701 140.647 49.9149C139.183 48.6691 138.242 46.7875 138.242 44.2144C138.242 41.577 139.241 39.698 140.627 38.473C142.026 37.2378 143.843 36.6469 145.496 36.6469C148.402 36.6469 150.287 37.8078 151.35 39.4368C152.361 40.9853 152.666 43.0145 152.315 45.0066H141.2H140.626L140.705 45.5756C140.921 47.125 141.792 48.2272 142.975 48.9273C144.144 49.6187 145.61 49.9182 147.067 49.9182ZM140.666 42.8952L140.637 43.4222H141.165H149.652H150.079L150.146 43.0002C150.27 42.2104 150.085 41.0881 149.4 40.1554C148.697 39.1971 147.494 38.4757 145.67 38.4757C144.423 38.4757 143.215 38.8439 142.291 39.591C141.359 40.3452 140.743 41.4642 140.666 42.8952Z" fill="black" stroke="black"/>
<path d="M159.14 41.5951V51.4327H156.718V37.0659H158.756V38.4868V39.8019L159.63 38.819C160.413 37.9381 162.069 36.6469 164.355 36.6469C166.51 36.6469 167.937 37.5174 168.708 38.8429L169.034 39.4044L169.493 38.9451C170.764 37.6748 172.46 36.6469 174.518 36.6469C176.408 36.6469 177.72 37.3408 178.569 38.365C179.429 39.4028 179.851 40.8261 179.851 42.3285V51.4327H177.428V42.4333C177.428 41.3389 177.1 40.402 176.465 39.7353C175.827 39.0661 174.928 38.7202 173.889 38.7202C171.989 38.7202 170.535 39.9789 169.702 40.9565L169.564 41.1186L169.585 41.3305C169.621 41.684 169.653 42.0084 169.653 42.3285V51.4327H167.23V42.4333C167.23 41.3389 166.902 40.402 166.267 39.7353C165.629 39.0661 164.73 38.7202 163.692 38.7202C161.597 38.7202 160.07 40.2126 159.243 41.2909L159.14 41.4255V41.5951Z" fill="black" stroke="black"/>
<path d="M189.754 52.2617L189.837 52.0581L189.743 51.8591L182.781 37.1008H185.3L190.336 48.365L190.818 49.4423L191.257 48.3468L195.776 37.0659H198.253L191.345 53.7992C191.345 53.7998 191.344 53.8003 191.344 53.8008C190.527 55.7425 189.609 56.9986 188.651 57.7682C187.702 58.5305 186.688 58.8367 185.624 58.8367C185.132 58.8367 184.633 58.7744 184.098 58.6785V56.8286C184.468 56.889 184.828 56.9031 185.17 56.9031C187.162 56.9031 188.509 55.4609 189.442 53.0248L189.754 52.2617Z" fill="black" stroke="black"/>
<path d="M70.781 14.8779V24.5409H68.3584V3.1543H70.781V11.3854V12.6193L71.64 11.7335C72.6764 10.6647 74.2977 9.78996 76.2403 9.78996C78.0624 9.78996 79.5088 10.403 80.499 11.4051C81.4906 12.4085 82.0616 13.8393 82.0616 15.5415V24.5409H79.639V15.9955C79.639 14.6492 79.2188 13.5902 78.4622 12.8699C77.7104 12.1541 76.6847 11.8284 75.5767 11.8284C73.382 11.8284 71.7845 13.3128 70.8741 14.5873L70.781 14.7177V14.8779Z" fill="black" stroke="black"/>
<path d="M88.5336 12.1428H86.2745V10.1393H88.5336H89.0336V9.63926V5.45551L91.4213 4.86474V9.67418V10.1742H91.9213H96.9743V12.1777H91.9213H91.4213V12.6777V19.6975C91.4213 20.7768 91.672 21.623 92.3084 22.1784C92.9285 22.7196 93.8072 22.8867 94.82 22.8867C95.7454 22.8867 96.6041 22.7506 97.4283 22.4974V24.3686C96.3915 24.6972 95.1177 24.8902 93.8072 24.8902C92.3975 24.8902 91.2109 24.5414 90.3836 23.8284C89.5689 23.1264 89.0336 22.0118 89.0336 20.3262V12.6428V12.1428H88.5336Z" fill="black" stroke="black"/>
<path d="M104.798 14.7032V24.5409H102.375V10.209H104.413V11.6299V12.945L105.287 11.962C106.07 11.0812 107.726 9.78992 110.012 9.78992C112.167 9.78992 113.594 10.6605 114.365 11.9859L114.691 12.5475L115.151 12.0882C116.421 10.8179 118.117 9.78992 120.175 9.78992C122.065 9.78992 123.377 10.4838 124.226 11.508C125.086 12.5459 125.508 13.9692 125.508 15.4716V24.5758H123.085V15.5414C123.085 14.4471 122.757 13.5102 122.122 12.8435C121.484 12.1742 120.586 11.8284 119.547 11.8284C117.646 11.8284 116.192 13.087 115.359 14.0647L115.221 14.2268L115.242 14.4387C115.278 14.7922 115.31 15.1165 115.31 15.4366V24.5409H112.887V15.5414C112.887 14.4471 112.559 13.5102 111.924 12.8435C111.287 12.1742 110.388 11.8284 109.349 11.8284C107.254 11.8284 105.727 13.3207 104.901 14.399L104.798 14.5336V14.7032Z" fill="black" stroke="black"/>
<path d="M131.502 3.1543H133.924V24.5409H131.502V3.1543Z" fill="black" stroke="black"/>
<path d="M27.0045 0.531063L27.0045 0.531169L27.0148 0.532238L53.0742 3.24462V51.6134L26.7871 67.2418L0.5 51.6134V3.24452L26.782 0.503249L27.0045 0.531063ZM50.3375 50.3368L51.8994 49.4072H50.5469V29.4414V28.5605L49.7905 29.0121L42.5961 33.3078L42.3524 33.4533V33.7371V39.814V40.8268V41.665V42.165H42.3873V43.826L26.7531 53.1659L11.2957 43.8644L11.3142 42.5736L26.5307 51.6635L27.2993 52.1227L27.2871 51.2274L27.2521 48.678L27.2483 48.3998L27.01 48.2564L11.2957 38.8003L11.3142 37.5082L26.4614 46.53L27.2296 46.9875L27.2172 46.0934L27.1823 43.5789L27.1784 43.2991L26.938 43.1561L3.74808 29.3609L2.99245 28.9114V29.7906V49.9072V50.1914L3.23672 50.3368L26.5314 64.2019L26.7871 64.3541L27.0428 64.2019L50.3375 50.3368ZM50.3003 27.2531L51.0371 26.8199L50.2984 26.3899L26.899 12.7694L26.6431 12.6204L26.3895 12.7731L3.30439 26.6731L2.58903 27.1038L3.30649 27.531L26.3567 41.2564L26.6138 41.4095L26.8703 41.2552L30.8168 38.8803L31.5384 38.4461L30.8116 38.0205L27.1865 35.8976L27.2049 34.6066L32.3649 37.6599L32.6988 37.8574L32.9722 37.584L34.781 36.3895L35.4469 35.9498L34.7607 35.5423L27.1864 31.0451L27.2049 29.7535L36.3457 35.1799L36.6005 35.3312L36.8556 35.1802L38.5603 34.1712L38.5669 34.1674L38.8048 34.0315L38.8197 34.023L38.834 34.0134L38.9388 33.9436L39.6006 33.5024L38.9161 33.0973L27.1864 26.1552L27.2049 24.8629L40.5022 32.7354L40.7576 32.8867L41.0127 32.7348L43.944 30.99L43.9463 30.9886L50.3003 27.2531ZM49.8278 24.843L50.5818 25.2875V24.4123V5.9721V5.52182L50.134 5.47483L26.8393 3.03011L26.7871 3.02463L26.7349 3.03011L3.44027 5.47483L2.99245 5.52182V5.9721V24.3773V25.2554L3.7476 24.8073L26.6832 11.198L49.8278 24.843Z" fill="black" stroke="black"/>
</svg>
